<?xml version="1.0" encoding="UTF-8" standalone="no"?>
<svg width="32px" height="32px" viewBox="0 0 32 32" version="1.1" xmlns="http://www.w3.org/2000/svg" xmlns:xlink="http://www.w3.org/1999/xlink" xmlns:sketch="http://www.bohemiancoding.com/sketch/ns">
    <!-- Generator: Sketch 3.3.1 (12005) - http://www.bohemiancoding.com/sketch -->
    <title>add-icon</title>
    <desc>Created with Sketch.</desc>
    <defs></defs>
    <g id="Page-1" stroke="none" stroke-width="1" fill="none" fill-rule="evenodd" sketch:type="MSPage">
        <g id="Artboard-7" sketch:type="MSArtboardGroup" transform="translate(-56.000000, -245.000000)">
            <g id="add-icon" sketch:type="MSLayerGroup" transform="translate(56.000000, 245.000000)">
                <circle id="Oval-100" fill="#00AEEE" sketch:type="MSShapeGroup" cx="16" cy="16" r="16"></circle>
                <path d="M18,17 L22.9991283,17 C23.5553691,17 24,16.5522847 24,16 C24,15.4438648 23.5518945,15 22.9991283,15 L18,15 L18,15 C17.4477153,15 17,14.5522847 17,14 L17,9.00087166 C17,8.44463086 16.5522847,8 16,8 C15.4438648,8 15,8.4481055 15,9.00087166 L15,14 C15,14.5522847 14.5522847,15 14,15 L9.00087166,15 C8.44463086,15 8,15.4477153 8,16 C8,16.5561352 8.4481055,17 9.00087166,17 L14,17 C14.5522847,17 15,17.4477153 15,18 L15,22.9991283 C15,23.5553691 15.4477153,24 16,24 C16.5561352,24 17,23.5518945 17,22.9991283 L17,18 C17,17.4477153 17.4477153,17 18,17 Z" id="Rectangle-150" fill="#FFFFFF" sketch:type="MSShapeGroup"></path>
            </g>
        </g>
    </g>
</svg>