<?xml version="1.0" encoding="UTF-8" standalone="no"?>
<svg width="32px" height="32px" viewBox="0 0 32 32" version="1.1" xmlns="http://www.w3.org/2000/svg" xmlns:xlink="http://www.w3.org/1999/xlink" xmlns:sketch="http://www.bohemiancoding.com/sketch/ns">
    <!-- Generator: Sketch 3.3.1 (12005) - http://www.bohemiancoding.com/sketch -->
    <title>added-icon</title>
    <desc>Created with Sketch.</desc>
    <defs></defs>
    <g id="Page-1" stroke="none" stroke-width="1" fill="none" fill-rule="evenodd" sketch:type="MSPage">
        <g id="Artboard-7" sketch:type="MSArtboardGroup" transform="translate(-96.000000, -245.000000)">
            <g id="added-icon" sketch:type="MSLayerGroup" transform="translate(96.000000, 245.000000)">
                <circle id="Oval-100-Copy-2" fill="#70BF1B" sketch:type="MSShapeGroup" cx="16" cy="16" r="16"></circle>
                <path d="M17.7781746,18.7781746 L17.7781746,8.78502007 C17.7781746,8.22895467 18.2220394,7.77817459 18.7781746,7.77817459 C19.3304593,7.77817459 19.7781746,8.22812335 19.7781746,8.78502007 L19.7781746,20.7713291 C19.7781746,21.0500078 19.6666921,21.3022427 19.4836572,21.4852814 C19.3023989,21.6662458 19.0531414,21.7781746 18.7811445,21.7781746 L12.7752047,21.7781746 C12.2245602,21.7781746 11.7781746,21.3343098 11.7781746,20.7781746 C11.7781746,20.2258898 12.2312109,19.7781746 12.7752047,19.7781746 L16.7781746,19.7781746 C17.3304593,19.7781746 17.7781746,19.3304593 17.7781746,18.7781746 Z" id="Rectangle-155" fill="#FFFFFF" sketch:type="MSShapeGroup" transform="translate(15.778175, 14.778175) rotate(-315.000000) translate(-15.778175, -14.778175) "></path>
            </g>
        </g>
    </g>
</svg>