<?xml version="1.0" encoding="UTF-8" standalone="no"?>
<svg width="10px" height="10px" viewBox="0 0 10 10" version="1.1" xmlns="http://www.w3.org/2000/svg" xmlns:xlink="http://www.w3.org/1999/xlink" xmlns:sketch="http://www.bohemiancoding.com/sketch/ns">
    <!-- Generator: Sketch 3.3.1 (12005) - http://www.bohemiancoding.com/sketch -->
    <title>clear-icon</title>
    <desc>Created with Sketch.</desc>
    <defs></defs>
    <g id="Page-1" stroke="none" stroke-width="1" fill="none" fill-rule="evenodd" sketch:type="MSPage">
        <g id="Icons" sketch:type="MSArtboardGroup" transform="translate(-507.000000, -412.000000)" fill="#FFFFFF">
            <path d="M515.373613,412.278122 C515.74147,411.910266 516.346614,411.90876 516.718927,412.281073 C517.093836,412.655982 517.092561,413.255703 516.721878,413.626387 L514.055485,416.29278 C513.664898,416.683367 513.659599,417.311334 514.055485,417.70722 L516.721878,420.373613 C517.089734,420.74147 517.09124,421.346614 516.718927,421.718927 C516.344018,422.093836 515.744297,422.092561 515.373613,421.721878 L512.70722,419.055485 C512.316633,418.664898 511.688666,418.659599 511.29278,419.055485 L508.626387,421.721878 C508.25853,422.089734 507.653386,422.09124 507.281073,421.718927 C506.906164,421.344018 506.907439,420.744297 507.278122,420.373613 L509.944515,417.70722 C510.335102,417.316633 510.340401,416.688666 509.944515,416.29278 L507.278122,413.626387 C506.910266,413.25853 506.90876,412.653386 507.281073,412.281073 C507.655982,411.906164 508.255703,411.907439 508.626387,412.278122 L511.29278,414.944515 C511.683367,415.335102 512.311334,415.340401 512.70722,414.944515 L515.373613,412.278122 Z" id="clear-icon" sketch:type="MSShapeGroup"></path>
        </g>
    </g>
</svg>