<?xml version="1.0" encoding="UTF-8" standalone="no"?>
<!-- Created with Inkscape (http://www.inkscape.org/) -->

<svg
   xmlns:svg="http://www.w3.org/2000/svg"
   xmlns="http://www.w3.org/2000/svg"
   version="1.1"
   width="1000"
   height="1000"
   viewBox="0 0 1000 1000"
   id="Layer_1"
   xml:space="preserve"><defs
   id="defs17" />


<g
   transform="matrix(0.49787346,0,0,0.49787346,250.86138,250.95946)"
   id="g2827"><g
     id="g3">
	<path
   d="m 500.409,215.36 c 157.089,0 284.848,127.79 284.848,284.878 0,157.032 -127.759,284.822 -284.848,284.822 C 343.374,785.06 215.561,657.27 215.561,500.238 215.562,343.15 343.374,215.36 500.409,215.36 m 0,-116.86 c -221.742,0 -401.712,179.939 -401.712,401.739 0,221.852 179.97,401.678 401.712,401.678 221.849,0 401.705,-179.826 401.705,-401.678 C 902.114,278.439 722.258,98.5 500.409,98.5 l 0,0 z"
   id="path5"
   style="fill:#cccccc" />
</g><g
     id="g7">
	<path
   d="m 506.115,492.906 c -16.092,0 -29.217,-13.042 -29.217,-29.216 V 346.829 c 0,-16.121 13.125,-29.216 29.217,-29.216 16.091,0 29.208,13.095 29.208,29.216 V 463.69 c 0,16.175 -13.117,29.216 -29.208,29.216 z"
   id="path9"
   style="fill:#cccccc" />
</g><g
     id="g11">
	<path
   d="m 652.188,609.764 c -6.388,0 -12.896,-1.996 -18.253,-6.358 L 487.854,486.541 c -12.556,-10.098 -14.604,-28.416 -4.56,-41.082 10.151,-12.469 28.412,-14.582 41.074,-4.567 l 146.081,116.856 c 12.556,10.105 14.725,28.563 4.559,41.089 -5.811,7.193 -14.263,10.927 -22.82,10.927 z"
   id="path13"
   style="fill:#cccccc" />
</g></g>
</svg>